# xmcd
# 
# Track frame offsets:
#     150
#     26219
#     48526
#     78295
#     97415
#     115394
#     139112
#     160755
#     181149
#     197157
#     219178
#     236806
#     255554
# 
# Disc length: 3676
# 
# Revision: 3
# Processed by: cddbd v1.5.2PL0 Copyright (c) Steve Scherf et al.
# Submitted via: BonkEnc v1.0
# 
DISCID=b70e5a0d
DTITLE=B. B. King - DEUCES WILD
DYEAR=1997
DGENRE=Blues
TTITLE0=Van Morrison - If you love me
TTITLE1=Tracy Chapman - The thrill is gone
TTITLE2=Eric Clapton - Rock me baby
TTITLE3=Mick Hucknall - Please send me someone to love
TTITLE4=Bonnie Rait - Baby i love you
TTITLE5=D'Angelo - Ain't nobody home
TTITLE6=Dr. John - There must be a better world somewhere
TTITLE7=Marty Stuart - Confessin' the blues
TTITLE8=The Rolling Stones - Paying the cost to be the boss
TTITLE9=Joe Cocker - Dangerous mood
TTITLE10=Heavy D - Keep it coming
TTITLE11=David Gilmour and Paul Carrack - Cryin' won't help you babe
TTITLE12=Willie Nelson - Night Life
EXTD=
EXTT0=
EXTT1=\n
EXTT2=\n
EXTT3=\n
EXTT4=
EXTT5=
EXTT6=
EXTT7=
EXTT8=
EXTT9=
EXTT10=
EXTT11=
EXTT12=
PLAYORDER=
